<mxfile host="app.diagrams.net" modified="2021-09-17T08:30:41.719Z" agent="5.0 (Windows NT 10.0; Win64; x64) AppleWebKit/537.36 (KHTML, like Gecko) Chrome/93.0.4577.82 Safari/537.36" etag="9teZmEeiYB5RBJ2x0-PO" version="15.2.9" type="github">
  <diagram id="py5yeUaVm4n7BHrZ4ISx" name="第 1 页">
    <mxGraphModel dx="1038" dy="547" grid="1" gridSize="10" guides="1" tooltips="1" connect="1" arrows="1" fold="1" page="1" pageScale="1" pageWidth="827" pageHeight="1169" math="0" shadow="0">
      <root>
        <mxCell id="0" />
        <mxCell id="1" parent="0" />
        <mxCell id="Ckwlon2BifFLdE8AZgkC-1" value="" style="rounded=0;whiteSpace=wrap;html=1;" vertex="1" parent="1">
          <mxGeometry x="30" y="400" width="100" height="40" as="geometry" />
        </mxCell>
        <mxCell id="Ckwlon2BifFLdE8AZgkC-2" value="&lt;b&gt;Conv&lt;/b&gt;" style="rounded=0;whiteSpace=wrap;html=1;rotation=-90;verticalAlign=middle;" vertex="1" parent="1">
          <mxGeometry x="160" y="400" width="80" height="40" as="geometry" />
        </mxCell>
      </root>
    </mxGraphModel>
  </diagram>
</mxfile>
